<?xml version="1.0" encoding="utf-8"?>
<!-- Generator: Adobe Illustrator 22.1.0, SVG Export Plug-In . SVG Version: 6.00 Build 0)  -->
<svg version="1.1" id="Слой_1" xmlns="http://www.w3.org/2000/svg" xmlns:xlink="http://www.w3.org/1999/xlink" x="0px" y="0px"
	 width="48px" height="48px" viewBox="0 0 48 48" enable-background="new 0 0 48 48" xml:space="preserve">
<g>
	<defs>
		<path id="XMLID_17_" d="M40,0H7.5C5,0,3,2,3,4.5v31.2c0,2.5,2,4.5,4.6,4.5H11v6.5c0,1,1.1,1.6,2,1.1l13.2-7.6H40
			c2.5,0,4.6-2,4.6-4.5V4.5C44.6,2,42.5,0,40,0z"/>
	</defs>
	<radialGradient id="XMLID_2_" cx="25.0261" cy="29.3527" r="24.1167" gradientUnits="userSpaceOnUse">
		<stop  offset="0" style="stop-color:#9160A4"/>
		<stop  offset="0.9921" style="stop-color:#6D4383"/>
	</radialGradient>
	<use xlink:href="#XMLID_17_"  overflow="visible" fill="url(#XMLID_2_)"/>
	<clipPath id="XMLID_3_">
		<use xlink:href="#XMLID_17_"  overflow="visible"/>
	</clipPath>
	<linearGradient id="SVGID_1_" gradientUnits="userSpaceOnUse" x1="35.8409" y1="20.5865" x2="18.532" y2="42.1902">
		<stop  offset="0" style="stop-color:#5060A9"/>
		<stop  offset="0.4722" style="stop-color:#1F7EC1"/>
		<stop  offset="1" style="stop-color:#65C7EE"/>
	</linearGradient>
	<polyline opacity="0.45" clip-path="url(#XMLID_3_)" fill="url(#SVGID_1_)" points="6.3,30.8 21,43.6 42.8,41.6 47.6,33.9 
		36.3,19.8 32.2,26.5 30.1,30.4 25.4,30.8 23.8,27.9 25,15.8 23.3,14.2 20.5,13.2 15.7,16 10.5,22.8 6.3,30.8 	"/>
	<linearGradient id="SVGID_2_" gradientUnits="userSpaceOnUse" x1="46.7305" y1="11.651" x2="38.2945" y2="22.1801">
		<stop  offset="0" style="stop-color:#5060A9"/>
		<stop  offset="0.4722" style="stop-color:#1F7EC1"/>
		<stop  offset="1" style="stop-color:#65C7EE"/>
	</linearGradient>
	<polyline opacity="0.45" clip-path="url(#XMLID_3_)" fill="url(#SVGID_2_)" points="36.8,16.9 45.7,27.9 45.9,12.1 39.7,5.5 	"/>
</g>
<path fill="#FFFFFF" d="M26.6,31.6c-1.5,0-2.5-0.4-3.2-1.3c-1.5-1.8-0.7-5,0.1-8.3c0.7-2.7,1.4-5.8,0.4-7c-0.4-0.5-1.1-0.7-2.1-0.7
	c-4.4,0-9.5,5.8-14,16c-0.2,0.5-0.9,0.8-1.4,0.5c-0.5-0.2-0.8-0.9-0.5-1.4c5-11.3,10.6-17.2,16-17.2c1.7,0,3,0.5,3.8,1.5
	c1.6,2,0.8,5.5,0,8.8c-0.6,2.5-1.3,5.4-0.5,6.4c0.1,0.1,0.4,0.5,1.5,0.5c3.9,0,6.9-6.9,7.7-9.5c0.2-0.6,0.8-0.9,1.3-0.7
	c0.6,0.2,0.9,0.8,0.7,1.3C36.2,20.9,32.9,31.6,26.6,31.6z"/>
<g>
	<polygon fill="#FFFFFF" points="31.4,14.2 34.2,14.1 39.7,5.5 	"/>
	<polygon fill="#8E8E8E" points="34.2,14.1 36.8,16.9 39.7,5.5 	"/>
	<polygon fill="#BABABA" points="35.8,14.2 36.8,16.9 39.7,5.5 	"/>
	<polygon fill="#FFFFFF" points="39.7,5.5 40.9,15.1 35.8,14.2 	"/>
</g>
</svg>
