<?xml version="1.0" encoding="UTF-8"?>
<svg width="640px" height="628px" viewBox="0 0 640 628" version="1.1" xmlns="http://www.w3.org/2000/svg" xmlns:xlink="http://www.w3.org/1999/xlink">
    <!-- Generator: Sketch 47.1 (45422) - http://www.bohemiancoding.com/sketch -->
    <title>Shape</title>
    <desc>Created with Sketch.</desc>
    <defs></defs>
    <g id="Page-1" stroke="none" stroke-width="1" fill="none" fill-rule="evenodd">
        <g id="facebook" fill-rule="nonzero" fill="#FFFFFF">
            <path d="M545.601562,85.628906 C485.242188,31 405.125,0.9179688 320,0.9179688 C234.875,0.9179688 154.757812,31 94.398438,85.628906 C33.523438,140.726562 -5.68434189e-14,214.132812 -5.68434189e-14,292.332031 C-5.68434189e-14,350.910156 18.863281,407.074219 54.632812,455.273438 L27.140625,627.1875 L201.058594,562.941406 C238.886719,576.75 278.863281,583.75 320,583.75 C405.125,583.75 485.242188,553.664062 545.601562,499.035156 C606.476562,443.9375 640,370.53125 640,292.332031 C640,214.132812 606.476562,140.726562 545.601562,85.628906 Z M348.046875,376.027344 L277.308594,320.683594 L108.105469,387.648438 L301.710938,195.085938 L373.304688,252.253906 L528.179688,192.207031 L348.046875,376.027344 Z" id="Shape"></path>
        </g>
    </g>
</svg>